<svg width="18" height="18" viewBox="0 0 18 18" fill="none" xmlns="http://www.w3.org/2000/svg">
<path d="M1.07438 10.3925C1.68769 9.77372 2.49824 9.39687 3.3586 9.31727C2.61589 8.64906 2.14728 7.6844 2.14728 6.6068C2.14728 4.59081 3.78093 2.95715 5.79732 2.95715C7.72312 2.95715 9.29991 4.44885 9.43677 6.33936C7.72351 7.0805 6.52121 8.78788 6.52121 10.7701C6.52121 11.494 6.68591 12.2015 6.99217 12.8434C6.55101 13.074 6.14436 13.372 5.78987 13.7296C4.88089 14.6449 4.36444 15.9103 4.37424 17.2005L4.37503 17.2267L4.37581 17.2491L4.40797 17.8596H0.0359974L-7.9155e-05 13.0246C-0.00752926 12.0383 0.378729 11.0925 1.07438 10.3925Z" fill="#4356B4"/>
<path d="M8.90846 13.4814C8.16614 12.8136 7.69597 11.8485 7.69597 10.7709C7.69597 8.75453 9.33041 7.12048 11.3464 7.12048C13.3628 7.12048 14.9968 8.75453 14.9968 10.7709C14.9968 11.8466 14.5286 12.8108 13.7875 13.479C15.6854 13.6261 17.1846 15.1978 17.1983 17.133L17.2344 17.8596H11.6844H5.58547L5.54939 17.1875C5.54234 16.2017 5.92899 15.2558 6.62425 14.5558C7.23834 13.9367 8.0485 13.561 8.90846 13.4814Z" fill="#4356B4"/>
<path d="M15.6456 4.39V5.74602C15.6456 6.30757 15.1891 6.76363 14.6272 6.76363C14.0645 6.76363 13.6088 6.30757 13.6088 5.74602V4.39H12.2544C11.6924 4.39 11.2364 3.93355 11.2364 3.37162C11.2364 2.81007 11.6924 2.35362 12.2544 2.35362H13.6088V1.0176C13.6088 0.455666 14.0645 0 14.6272 0C15.1891 0 15.6456 0.455666 15.6456 1.0176V2.35323H16.982C17.5447 2.35323 18 2.80968 18 3.37123C18 3.93316 17.5447 4.38961 16.982 4.38961H15.6456V4.39Z" fill="#4356B4"/>
</svg>
