<svg width="20" height="18" viewBox="0 0 20 18" fill="none" xmlns="http://www.w3.org/2000/svg">
<path d="M19.2188 3.44801C18.6979 2.92723 18.0696 2.66676 17.3335 2.66676H15.0001L14.469 1.25019C14.337 0.909972 14.0958 0.616523 13.7449 0.369885C13.3942 0.123356 13.0348 0 12.6667 0H7.33334C6.96528 0 6.60586 0.123356 6.25513 0.369885C5.9044 0.616523 5.66316 0.909972 5.5312 1.25019L4.99998 2.66676H2.66665C1.93042 2.66676 1.30208 2.92723 0.78118 3.44801C0.260393 3.96884 0 4.59725 0 5.33341V14.6667C0 15.4029 0.260393 16.0314 0.78118 16.5521C1.30208 17.073 1.93046 17.3335 2.66665 17.3335H17.3332C18.0694 17.3335 18.6976 17.073 19.2186 16.5521C19.7393 16.0314 19.9998 15.4029 19.9998 14.6667V5.33341C19.9999 4.59725 19.7395 3.96884 19.2188 3.44801ZM13.2968 13.2971C12.3836 14.2103 11.2848 14.667 9.99995 14.667C8.71513 14.667 7.61635 14.2103 6.70309 13.2971C5.78984 12.384 5.3333 11.2849 5.3333 10.0003C5.3333 8.71542 5.78998 7.61668 6.70309 6.70342C7.61624 5.79017 8.71517 5.33363 9.99995 5.33363C11.2847 5.33363 12.3836 5.79028 13.2968 6.70342C14.21 7.61657 14.6666 8.71542 14.6666 10.0003C14.6666 11.2849 14.2101 12.3839 13.2968 13.2971Z" fill="white"/>
<path d="M10.0001 7.00009C9.17367 7.00009 8.46706 7.2935 7.88024 7.8804C7.29341 8.46723 7 9.17372 7 10.0003C7 10.8266 7.29341 11.5332 7.88024 12.12C8.46706 12.7068 9.17363 13.0002 10.0001 13.0002C10.8264 13.0002 11.5331 12.7068 12.1199 12.12C12.7067 11.5332 13.0002 10.8266 13.0002 10.0003C13.0002 9.17376 12.7067 8.46726 12.1199 7.8804C11.5331 7.29354 10.8264 7.00009 10.0001 7.00009Z" fill="white"/>
</svg>
