<svg width="28" height="25" viewBox="0 0 28 25" fill="none" xmlns="http://www.w3.org/2000/svg">
<path d="M1.74555 12.0799C2.74196 11.0745 4.05882 10.4623 5.4566 10.333C4.24995 9.24735 3.48863 7.68011 3.48863 5.92939C3.48863 2.65412 6.14274 0 9.41866 0C12.5474 0 15.1091 2.42349 15.3315 5.4949C12.548 6.699 10.5947 9.47288 10.5947 12.6934C10.5947 13.8694 10.8623 15.0187 11.3599 16.0617C10.6431 16.4363 9.98248 16.9205 9.40655 17.5015C7.92978 18.9885 7.09073 21.0443 7.10666 23.1404L7.10793 23.183L7.10921 23.2194L7.16145 24.2113H0.0585356L-7.62939e-05 16.356C-0.0121803 14.7537 0.615354 13.2171 1.74555 12.0799Z" fill="#D2D2D2"/>
<path d="M14.4733 17.0982C13.2673 16.0132 12.5034 14.4453 12.5034 12.6946C12.5034 9.4187 15.1588 6.76395 18.4341 6.76395C21.71 6.76395 24.3648 9.4187 24.3648 12.6946C24.3648 14.4421 23.6041 16.0087 22.4 17.0943C25.4835 17.3333 27.9191 19.8867 27.9414 23.0307L28 24.2113H18.9833H9.07462L9.01601 23.1193C9.00454 21.5177 9.63271 19.981 10.7623 18.8438C11.76 17.8378 13.0762 17.2275 14.4733 17.0982Z" fill="#D2D2D2"/>
</svg>
