<svg width="28" height="25" viewBox="0 0 28 25" fill="none" xmlns="http://www.w3.org/2000/svg">
<path d="M1.74561 12.0799C2.74202 11.0745 4.05888 10.4623 5.45665 10.333C4.25 9.24735 3.48868 7.68011 3.48868 5.92939C3.48868 2.65412 6.1428 0 9.41871 0C12.5475 0 15.1092 2.42349 15.3315 5.4949C12.5481 6.699 10.5948 9.47288 10.5948 12.6934C10.5948 13.8694 10.8624 15.0187 11.3599 16.0617C10.6432 16.4363 9.98254 16.9205 9.40661 17.5015C7.92984 18.9885 7.09079 21.0443 7.10672 23.1404L7.10799 23.183L7.10926 23.2194L7.16151 24.2113H0.0585928L-1.90735e-05 16.356C-0.0121231 14.7537 0.615411 13.2171 1.74561 12.0799Z" fill="#4356B4"/>
<path d="M14.4733 17.0982C13.2673 16.0132 12.5034 14.4453 12.5034 12.6946C12.5034 9.4187 15.1588 6.76395 18.4341 6.76395C21.71 6.76395 24.3648 9.4187 24.3648 12.6946C24.3648 14.4421 23.6041 16.0087 22.4 17.0943C25.4835 17.3333 27.9191 19.8867 27.9414 23.0307L28 24.2113H18.9833H9.07462L9.01601 23.1193C9.00454 21.5177 9.63271 19.981 10.7623 18.8438C11.76 17.8378 13.0762 17.2275 14.4733 17.0982Z" fill="#4356B4"/>
</svg>
