<svg width="16" height="16" viewBox="0 0 16 16" fill="none" xmlns="http://www.w3.org/2000/svg">
<path d="M15.2981 10.7714L13.5631 9.53209C12.8935 9.05384 11.9851 9.12903 11.4032 9.71084L10.3866 10.7275C9.0837 9.80425 6.19638 6.91731 5.27235 5.61337L6.289 4.59675C6.87094 4.01481 6.9461 3.10647 6.46779 2.43687L5.22853 0.701936C4.62697 -0.140189 3.41181 -0.241939 2.67884 0.490936L1.07809 2.09169C-0.360477 3.53022 -0.35932 5.47703 1.08131 7.433C3.36606 10.535 5.46485 12.6338 8.56695 14.9185C10.3762 16.2511 12.3653 16.4648 13.9083 14.9218L15.5091 13.321C16.2409 12.5892 16.1414 11.3737 15.2981 10.7714ZM14.6254 12.4372L13.0246 14.0379C11.9145 15.1481 10.5676 14.8397 9.30817 13.9122C6.31594 11.7083 4.2915 9.68394 2.08768 6.69181C1.16046 5.43287 0.851463 4.08584 1.96187 2.97547L3.56269 1.37469C3.74975 1.18762 4.05847 1.21412 4.2115 1.4284L5.45078 3.16334C5.5725 3.33375 5.55335 3.56487 5.40528 3.71294L4.05234 5.06581C3.88191 5.23628 3.82469 5.48953 3.90528 5.71672C4.33625 6.93112 9.07007 11.6641 10.2833 12.0946C10.5105 12.1753 10.7637 12.118 10.9342 11.9475L12.2871 10.5947C12.4352 10.4466 12.6664 10.4275 12.8367 10.5492L14.5717 11.7884C14.7864 11.9418 14.8119 12.2507 14.6254 12.4372Z" fill="#4356B4"/>
</svg>
