<svg width="18" height="18" viewBox="0 0 18 18" fill="none" xmlns="http://www.w3.org/2000/svg">
<path d="M17.3267 14.1845L14.3641 11.2219C14.9027 10.1446 15.2618 8.88778 15.2618 7.63092C15.2618 3.41147 11.8504 0 7.63092 0C3.41147 0 0 3.41147 0 7.63092C0 11.8504 3.41147 15.2618 7.63092 15.2618C8.88778 15.2618 10.1446 14.9027 11.2219 14.3641L14.1845 17.3267C15.0823 18.2244 16.4289 18.2244 17.3267 17.3267C18.1347 16.4289 18.1347 15.0823 17.3267 14.1845ZM7.63092 13.4663C4.399 13.4663 1.79551 10.8628 1.79551 7.63092C1.79551 4.399 4.399 1.79551 7.63092 1.79551C10.8628 1.79551 13.4663 4.399 13.4663 7.63092C13.4663 10.8628 10.8628 13.4663 7.63092 13.4663Z" fill="#4356B4"/>
</svg>
